<svg width="598" height="89" viewBox="0 0 598 89" fill="none" xmlns="http://www.w3.org/2000/svg">
<g filter="url(#filter0_d_1_10)">
<mask id="path-1-outside-1_1_10" maskUnits="userSpaceOnUse" x="19" y="1" width="584" height="79" fill="black">
<rect fill="white" x="19" y="1" width="584" height="79"/>
<path d="M63.6364 22.6364C63.2273 19.1818 61.5682 16.5 58.6591 14.5909C55.75 12.6818 52.1818 11.7273 47.9545 11.7273C44.8636 11.7273 42.1591 12.2273 39.8409 13.2273C37.5455 14.2273 35.75 15.6023 34.4545 17.3523C33.1818 19.1023 32.5455 21.0909 32.5455 23.3182C32.5455 25.1818 32.9886 26.7841 33.875 28.125C34.7841 29.4432 35.9432 30.5455 37.3523 31.4318C38.7614 32.2955 40.2386 33.0114 41.7841 33.5795C43.3295 34.125 44.75 34.5682 46.0455 34.9091L53.1364 36.8182C54.9545 37.2955 56.9773 37.9545 59.2045 38.7955C61.4545 39.6364 63.6023 40.7841 65.6477 42.2386C67.7159 43.6705 69.4205 45.5114 70.7614 47.7614C72.1023 50.0114 72.7727 52.7727 72.7727 56.0455C72.7727 59.8182 71.7841 63.2273 69.8068 66.2727C67.8523 69.3182 64.9886 71.7386 61.2159 73.5341C57.4659 75.3295 52.9091 76.2273 47.5455 76.2273C42.5455 76.2273 38.2159 75.4205 34.5568 73.8068C30.9205 72.1932 28.0568 69.9432 25.9659 67.0568C23.8977 64.1705 22.7273 60.8182 22.4545 57H31.1818C31.4091 59.6364 32.2955 61.8182 33.8409 63.5455C35.4091 65.25 37.3864 66.5227 39.7727 67.3636C42.1818 68.1818 44.7727 68.5909 47.5455 68.5909C50.7727 68.5909 53.6705 68.0682 56.2386 67.0227C58.8068 65.9545 60.8409 64.4773 62.3409 62.5909C63.8409 60.6818 64.5909 58.4545 64.5909 55.9091C64.5909 53.5909 63.9432 51.7045 62.6477 50.25C61.3523 48.7955 59.6477 47.6136 57.5341 46.7045C55.4205 45.7955 53.1364 45 50.6818 44.3182L42.0909 41.8636C36.6364 40.2955 32.3182 38.0568 29.1364 35.1477C25.9545 32.2386 24.3636 28.4318 24.3636 23.7273C24.3636 19.8182 25.4205 16.4091 27.5341 13.5C29.6705 10.5682 32.5341 8.29545 36.125 6.68182C39.7386 5.04545 43.7727 4.22727 48.2273 4.22727C52.7273 4.22727 56.7273 5.03409 60.2273 6.64772C63.7273 8.23863 66.5 10.4205 68.5455 13.1932C70.6136 15.9659 71.7045 19.1136 71.8182 22.6364H63.6364ZM145.582 40.0909C145.582 47.4545 144.253 53.8182 141.594 59.1818C138.935 64.5455 135.287 68.6818 130.651 71.5909C126.014 74.5 120.719 75.9545 114.764 75.9545C108.81 75.9545 103.514 74.5 98.8778 71.5909C94.2415 68.6818 90.5938 64.5455 87.9347 59.1818C85.2756 53.8182 83.946 47.4545 83.946 40.0909C83.946 32.7273 85.2756 26.3636 87.9347 21C90.5938 15.6364 94.2415 11.5 98.8778 8.59091C103.514 5.68182 108.81 4.22727 114.764 4.22727C120.719 4.22727 126.014 5.68182 130.651 8.59091C135.287 11.5 138.935 15.6364 141.594 21C144.253 26.3636 145.582 32.7273 145.582 40.0909ZM137.401 40.0909C137.401 34.0455 136.389 28.9432 134.366 24.7841C132.366 20.625 129.651 17.4773 126.219 15.3409C122.81 13.2045 118.991 12.1364 114.764 12.1364C110.537 12.1364 106.707 13.2045 103.276 15.3409C99.8665 17.4773 97.1506 20.625 95.1278 24.7841C93.1278 28.9432 92.1278 34.0455 92.1278 40.0909C92.1278 46.1364 93.1278 51.2386 95.1278 55.3977C97.1506 59.5568 99.8665 62.7045 103.276 64.8409C106.707 66.9773 110.537 68.0455 114.764 68.0455C118.991 68.0455 122.81 66.9773 126.219 64.8409C129.651 62.7045 132.366 59.5568 134.366 55.3977C136.389 51.2386 137.401 46.1364 137.401 40.0909ZM159.798 75V5.18182H183.389C188.844 5.18182 193.321 6.11363 196.821 7.97727C200.321 9.81818 202.912 12.3523 204.594 15.5795C206.276 18.8068 207.116 22.4773 207.116 26.5909C207.116 30.7045 206.276 34.3523 204.594 37.5341C202.912 40.7159 200.332 43.2159 196.855 45.0341C193.378 46.8295 188.935 47.7273 183.526 47.7273H164.435V40.0909H183.253C186.98 40.0909 189.98 39.5455 192.253 38.4545C194.548 37.3636 196.207 35.8182 197.23 33.8182C198.276 31.7955 198.798 29.3864 198.798 26.5909C198.798 23.7955 198.276 21.3523 197.23 19.2614C196.185 17.1705 194.514 15.5568 192.219 14.4205C189.923 13.2614 186.889 12.6818 183.116 12.6818H168.253V75H159.798ZM192.662 43.6364L209.844 75H200.026L183.116 43.6364H192.662ZM217.386 12.6818V5.18182H269.75V12.6818H247.795V75H239.341V12.6818H217.386ZM282.798 75V5.18182H324.935V12.6818H291.253V36.2727H322.753V43.7727H291.253V67.5H325.48V75H282.798ZM343.037 75H334.173L359.81 5.18182H368.537L394.173 75H385.31L364.446 16.2273H363.901L343.037 75ZM346.31 47.7273H382.037V55.2273H346.31V47.7273ZM426.594 75H405.048V5.18182H427.548C434.321 5.18182 440.116 6.57954 444.935 9.375C449.753 12.1477 453.446 16.1364 456.014 21.3409C458.582 26.5227 459.866 32.7273 459.866 39.9545C459.866 47.2273 458.571 53.4886 455.98 58.7386C453.389 63.9659 449.616 67.9886 444.662 70.8068C439.707 73.6023 433.685 75 426.594 75ZM413.503 67.5H426.048C431.821 67.5 436.605 66.3864 440.401 64.1591C444.196 61.9318 447.026 58.7614 448.889 54.6477C450.753 50.5341 451.685 45.6364 451.685 39.9545C451.685 34.3182 450.764 29.4659 448.923 25.3977C447.082 21.3068 444.332 18.1705 440.673 15.9886C437.014 13.7841 432.457 12.6818 427.003 12.6818H413.503V67.5ZM532.957 40.0909C532.957 47.4545 531.628 53.8182 528.969 59.1818C526.31 64.5455 522.662 68.6818 518.026 71.5909C513.389 74.5 508.094 75.9545 502.139 75.9545C496.185 75.9545 490.889 74.5 486.253 71.5909C481.616 68.6818 477.969 64.5455 475.31 59.1818C472.651 53.8182 471.321 47.4545 471.321 40.0909C471.321 32.7273 472.651 26.3636 475.31 21C477.969 15.6364 481.616 11.5 486.253 8.59091C490.889 5.68182 496.185 4.22727 502.139 4.22727C508.094 4.22727 513.389 5.68182 518.026 8.59091C522.662 11.5 526.31 15.6364 528.969 21C531.628 26.3636 532.957 32.7273 532.957 40.0909ZM524.776 40.0909C524.776 34.0455 523.764 28.9432 521.741 24.7841C519.741 20.625 517.026 17.4773 513.594 15.3409C510.185 13.2045 506.366 12.1364 502.139 12.1364C497.912 12.1364 494.082 13.2045 490.651 15.3409C487.241 17.4773 484.526 20.625 482.503 24.7841C480.503 28.9432 479.503 34.0455 479.503 40.0909C479.503 46.1364 480.503 51.2386 482.503 55.3977C484.526 59.5568 487.241 62.7045 490.651 64.8409C494.082 66.9773 497.912 68.0455 502.139 68.0455C506.366 68.0455 510.185 66.9773 513.594 64.8409C517.026 62.7045 519.741 59.5568 521.741 55.3977C523.764 51.2386 524.776 46.1364 524.776 40.0909ZM547.173 75V5.18182H570.764C576.219 5.18182 580.696 6.11363 584.196 7.97727C587.696 9.81818 590.287 12.3523 591.969 15.5795C593.651 18.8068 594.491 22.4773 594.491 26.5909C594.491 30.7045 593.651 34.3523 591.969 37.5341C590.287 40.7159 587.707 43.2159 584.23 45.0341C580.753 46.8295 576.31 47.7273 570.901 47.7273H551.81V40.0909H570.628C574.355 40.0909 577.355 39.5455 579.628 38.4545C581.923 37.3636 583.582 35.8182 584.605 33.8182C585.651 31.7955 586.173 29.3864 586.173 26.5909C586.173 23.7955 585.651 21.3523 584.605 19.2614C583.56 17.1705 581.889 15.5568 579.594 14.4205C577.298 13.2614 574.264 12.6818 570.491 12.6818H555.628V75H547.173ZM580.037 43.6364L597.219 75H587.401L570.491 43.6364H580.037Z"/>
</mask>
<path d="M63.6364 22.6364C63.2273 19.1818 61.5682 16.5 58.6591 14.5909C55.75 12.6818 52.1818 11.7273 47.9545 11.7273C44.8636 11.7273 42.1591 12.2273 39.8409 13.2273C37.5455 14.2273 35.75 15.6023 34.4545 17.3523C33.1818 19.1023 32.5455 21.0909 32.5455 23.3182C32.5455 25.1818 32.9886 26.7841 33.875 28.125C34.7841 29.4432 35.9432 30.5455 37.3523 31.4318C38.7614 32.2955 40.2386 33.0114 41.7841 33.5795C43.3295 34.125 44.75 34.5682 46.0455 34.9091L53.1364 36.8182C54.9545 37.2955 56.9773 37.9545 59.2045 38.7955C61.4545 39.6364 63.6023 40.7841 65.6477 42.2386C67.7159 43.6705 69.4205 45.5114 70.7614 47.7614C72.1023 50.0114 72.7727 52.7727 72.7727 56.0455C72.7727 59.8182 71.7841 63.2273 69.8068 66.2727C67.8523 69.3182 64.9886 71.7386 61.2159 73.5341C57.4659 75.3295 52.9091 76.2273 47.5455 76.2273C42.5455 76.2273 38.2159 75.4205 34.5568 73.8068C30.9205 72.1932 28.0568 69.9432 25.9659 67.0568C23.8977 64.1705 22.7273 60.8182 22.4545 57H31.1818C31.4091 59.6364 32.2955 61.8182 33.8409 63.5455C35.4091 65.25 37.3864 66.5227 39.7727 67.3636C42.1818 68.1818 44.7727 68.5909 47.5455 68.5909C50.7727 68.5909 53.6705 68.0682 56.2386 67.0227C58.8068 65.9545 60.8409 64.4773 62.3409 62.5909C63.8409 60.6818 64.5909 58.4545 64.5909 55.9091C64.5909 53.5909 63.9432 51.7045 62.6477 50.25C61.3523 48.7955 59.6477 47.6136 57.5341 46.7045C55.4205 45.7955 53.1364 45 50.6818 44.3182L42.0909 41.8636C36.6364 40.2955 32.3182 38.0568 29.1364 35.1477C25.9545 32.2386 24.3636 28.4318 24.3636 23.7273C24.3636 19.8182 25.4205 16.4091 27.5341 13.5C29.6705 10.5682 32.5341 8.29545 36.125 6.68182C39.7386 5.04545 43.7727 4.22727 48.2273 4.22727C52.7273 4.22727 56.7273 5.03409 60.2273 6.64772C63.7273 8.23863 66.5 10.4205 68.5455 13.1932C70.6136 15.9659 71.7045 19.1136 71.8182 22.6364H63.6364ZM145.582 40.0909C145.582 47.4545 144.253 53.8182 141.594 59.1818C138.935 64.5455 135.287 68.6818 130.651 71.5909C126.014 74.5 120.719 75.9545 114.764 75.9545C108.81 75.9545 103.514 74.5 98.8778 71.5909C94.2415 68.6818 90.5938 64.5455 87.9347 59.1818C85.2756 53.8182 83.946 47.4545 83.946 40.0909C83.946 32.7273 85.2756 26.3636 87.9347 21C90.5938 15.6364 94.2415 11.5 98.8778 8.59091C103.514 5.68182 108.81 4.22727 114.764 4.22727C120.719 4.22727 126.014 5.68182 130.651 8.59091C135.287 11.5 138.935 15.6364 141.594 21C144.253 26.3636 145.582 32.7273 145.582 40.0909ZM137.401 40.0909C137.401 34.0455 136.389 28.9432 134.366 24.7841C132.366 20.625 129.651 17.4773 126.219 15.3409C122.81 13.2045 118.991 12.1364 114.764 12.1364C110.537 12.1364 106.707 13.2045 103.276 15.3409C99.8665 17.4773 97.1506 20.625 95.1278 24.7841C93.1278 28.9432 92.1278 34.0455 92.1278 40.0909C92.1278 46.1364 93.1278 51.2386 95.1278 55.3977C97.1506 59.5568 99.8665 62.7045 103.276 64.8409C106.707 66.9773 110.537 68.0455 114.764 68.0455C118.991 68.0455 122.81 66.9773 126.219 64.8409C129.651 62.7045 132.366 59.5568 134.366 55.3977C136.389 51.2386 137.401 46.1364 137.401 40.0909ZM159.798 75V5.18182H183.389C188.844 5.18182 193.321 6.11363 196.821 7.97727C200.321 9.81818 202.912 12.3523 204.594 15.5795C206.276 18.8068 207.116 22.4773 207.116 26.5909C207.116 30.7045 206.276 34.3523 204.594 37.5341C202.912 40.7159 200.332 43.2159 196.855 45.0341C193.378 46.8295 188.935 47.7273 183.526 47.7273H164.435V40.0909H183.253C186.98 40.0909 189.98 39.5455 192.253 38.4545C194.548 37.3636 196.207 35.8182 197.23 33.8182C198.276 31.7955 198.798 29.3864 198.798 26.5909C198.798 23.7955 198.276 21.3523 197.23 19.2614C196.185 17.1705 194.514 15.5568 192.219 14.4205C189.923 13.2614 186.889 12.6818 183.116 12.6818H168.253V75H159.798ZM192.662 43.6364L209.844 75H200.026L183.116 43.6364H192.662ZM217.386 12.6818V5.18182H269.75V12.6818H247.795V75H239.341V12.6818H217.386ZM282.798 75V5.18182H324.935V12.6818H291.253V36.2727H322.753V43.7727H291.253V67.5H325.48V75H282.798ZM343.037 75H334.173L359.81 5.18182H368.537L394.173 75H385.31L364.446 16.2273H363.901L343.037 75ZM346.31 47.7273H382.037V55.2273H346.31V47.7273ZM426.594 75H405.048V5.18182H427.548C434.321 5.18182 440.116 6.57954 444.935 9.375C449.753 12.1477 453.446 16.1364 456.014 21.3409C458.582 26.5227 459.866 32.7273 459.866 39.9545C459.866 47.2273 458.571 53.4886 455.98 58.7386C453.389 63.9659 449.616 67.9886 444.662 70.8068C439.707 73.6023 433.685 75 426.594 75ZM413.503 67.5H426.048C431.821 67.5 436.605 66.3864 440.401 64.1591C444.196 61.9318 447.026 58.7614 448.889 54.6477C450.753 50.5341 451.685 45.6364 451.685 39.9545C451.685 34.3182 450.764 29.4659 448.923 25.3977C447.082 21.3068 444.332 18.1705 440.673 15.9886C437.014 13.7841 432.457 12.6818 427.003 12.6818H413.503V67.5ZM532.957 40.0909C532.957 47.4545 531.628 53.8182 528.969 59.1818C526.31 64.5455 522.662 68.6818 518.026 71.5909C513.389 74.5 508.094 75.9545 502.139 75.9545C496.185 75.9545 490.889 74.5 486.253 71.5909C481.616 68.6818 477.969 64.5455 475.31 59.1818C472.651 53.8182 471.321 47.4545 471.321 40.0909C471.321 32.7273 472.651 26.3636 475.31 21C477.969 15.6364 481.616 11.5 486.253 8.59091C490.889 5.68182 496.185 4.22727 502.139 4.22727C508.094 4.22727 513.389 5.68182 518.026 8.59091C522.662 11.5 526.31 15.6364 528.969 21C531.628 26.3636 532.957 32.7273 532.957 40.0909ZM524.776 40.0909C524.776 34.0455 523.764 28.9432 521.741 24.7841C519.741 20.625 517.026 17.4773 513.594 15.3409C510.185 13.2045 506.366 12.1364 502.139 12.1364C497.912 12.1364 494.082 13.2045 490.651 15.3409C487.241 17.4773 484.526 20.625 482.503 24.7841C480.503 28.9432 479.503 34.0455 479.503 40.0909C479.503 46.1364 480.503 51.2386 482.503 55.3977C484.526 59.5568 487.241 62.7045 490.651 64.8409C494.082 66.9773 497.912 68.0455 502.139 68.0455C506.366 68.0455 510.185 66.9773 513.594 64.8409C517.026 62.7045 519.741 59.5568 521.741 55.3977C523.764 51.2386 524.776 46.1364 524.776 40.0909ZM547.173 75V5.18182H570.764C576.219 5.18182 580.696 6.11363 584.196 7.97727C587.696 9.81818 590.287 12.3523 591.969 15.5795C593.651 18.8068 594.491 22.4773 594.491 26.5909C594.491 30.7045 593.651 34.3523 591.969 37.5341C590.287 40.7159 587.707 43.2159 584.23 45.0341C580.753 46.8295 576.31 47.7273 570.901 47.7273H551.81V40.0909H570.628C574.355 40.0909 577.355 39.5455 579.628 38.4545C581.923 37.3636 583.582 35.8182 584.605 33.8182C585.651 31.7955 586.173 29.3864 586.173 26.5909C586.173 23.7955 585.651 21.3523 584.605 19.2614C583.56 17.1705 581.889 15.5568 579.594 14.4205C577.298 13.2614 574.264 12.6818 570.491 12.6818H555.628V75H547.173ZM580.037 43.6364L597.219 75H587.401L570.491 43.6364H580.037Z" fill="#DF951F"/>
<path d="M63.6364 22.6364L60.6572 22.9892L60.9707 25.6364H63.6364V22.6364ZM58.6591 14.5909L57.0131 17.0991L57.0131 17.0991L58.6591 14.5909ZM39.8409 13.2273L38.6526 10.4726L38.6427 10.4769L39.8409 13.2273ZM34.4545 17.3523L32.0433 15.5673L32.0358 15.5775L32.0283 15.5878L34.4545 17.3523ZM33.875 28.125L31.3723 29.7793L31.3886 29.8039L31.4054 29.8282L33.875 28.125ZM37.3523 31.4318L35.7549 33.9712L35.7697 33.9805L35.7846 33.9896L37.3523 31.4318ZM41.7841 33.5795L40.7489 36.3953L40.7672 36.402L40.7856 36.4085L41.7841 33.5795ZM46.0455 34.9091L46.8254 32.0122L46.8172 32.01L46.8089 32.0079L46.0455 34.9091ZM53.1364 36.8182L52.3564 39.715L52.3656 39.7175L52.3747 39.7199L53.1364 36.8182ZM59.2045 38.7955L58.1449 41.6021L58.1543 41.6056L59.2045 38.7955ZM65.6477 42.2386L63.9092 44.6835L63.9246 44.6945L63.9401 44.7052L65.6477 42.2386ZM70.7614 47.7614L73.3384 46.2255L73.3384 46.2255L70.7614 47.7614ZM69.8068 66.2727L67.2906 64.6391L67.2863 64.6457L67.2821 64.6524L69.8068 66.2727ZM61.2159 73.5341L59.9267 70.8252L59.9204 70.8282L61.2159 73.5341ZM34.5568 73.8068L33.34 76.549L33.3463 76.5518L34.5568 73.8068ZM25.9659 67.0568L23.5273 68.8042L23.5318 68.8105L23.5364 68.8168L25.9659 67.0568ZM22.4545 57V54H19.2326L19.4622 57.2137L22.4545 57ZM31.1818 57L34.1707 56.7423L33.9343 54H31.1818V57ZM33.8409 63.5455L31.6052 65.5458L31.619 65.5613L31.6331 65.5766L33.8409 63.5455ZM39.7727 67.3636L38.7757 70.1931L38.7918 70.1988L38.808 70.2043L39.7727 67.3636ZM56.2386 67.0227L57.3697 69.8013L57.3803 69.797L57.3907 69.7927L56.2386 67.0227ZM62.3409 62.5909L64.689 64.4581L64.6945 64.4512L64.6999 64.4444L62.3409 62.5909ZM62.6477 50.25L64.888 48.2547L64.888 48.2547L62.6477 50.25ZM57.5341 46.7045L56.3488 49.4604L56.3488 49.4604L57.5341 46.7045ZM50.6818 44.3182L49.8577 47.2028L49.8683 47.2058L49.8789 47.2087L50.6818 44.3182ZM42.0909 41.8636L41.262 44.7468L41.2667 44.7482L42.0909 41.8636ZM29.1364 35.1477L27.1121 37.3618L27.1121 37.3618L29.1364 35.1477ZM27.5341 13.5L25.1095 11.7332L25.1071 11.7366L27.5341 13.5ZM36.125 6.68182L37.3547 9.41824L37.3625 9.41468L36.125 6.68182ZM60.2273 6.64772L58.9712 9.37212L58.9785 9.37549L58.9859 9.37882L60.2273 6.64772ZM68.5455 13.1932L66.1313 14.9741L66.136 14.9805L66.1407 14.9869L68.5455 13.1932ZM71.8182 22.6364V25.6364H74.9165L74.8166 22.5396L71.8182 22.6364ZM66.6155 22.2836C66.1022 17.9487 63.9549 14.478 60.3051 12.0828L57.0131 17.0991C59.1815 18.522 60.3523 20.415 60.6572 22.9892L66.6155 22.2836ZM60.3051 12.0828C56.8108 9.78962 52.6398 8.72727 47.9545 8.72727V14.7273C51.7238 14.7273 54.6893 15.574 57.0131 17.0991L60.3051 12.0828ZM47.9545 8.72727C44.5443 8.72727 41.4202 9.27879 38.6526 10.4726L41.0292 15.9819C42.898 15.1758 45.183 14.7273 47.9545 14.7273V8.72727ZM38.6427 10.4769C35.9386 11.655 33.6959 13.3349 32.0433 15.5673L36.8658 19.1372C37.8041 17.8696 39.1523 16.7996 41.0391 15.9776L38.6427 10.4769ZM32.0283 15.5878C30.3712 17.8664 29.5455 20.4768 29.5455 23.3182H35.5455C35.5455 21.705 35.9925 20.3382 36.8808 19.1168L32.0283 15.5878ZM29.5455 23.3182C29.5455 25.674 30.1124 27.8732 31.3723 29.7793L36.3777 26.4707C35.8649 25.695 35.5455 24.6896 35.5455 23.3182H29.5455ZM31.4054 29.8282C32.5547 31.4947 34.0153 32.8769 35.7549 33.9712L38.9496 28.8924C37.8711 28.214 37.0135 27.3917 36.3446 26.4218L31.4054 29.8282ZM35.7846 33.9896C37.3616 34.9562 39.0172 35.7586 40.7489 36.3953L42.8193 30.7638C41.4601 30.2641 40.1611 29.6347 38.92 28.874L35.7846 33.9896ZM40.7856 36.4085C42.3921 36.9755 43.8921 37.4446 45.282 37.8103L46.8089 32.0079C45.6079 31.6918 44.267 31.2745 42.7826 30.7506L40.7856 36.4085ZM45.2655 37.8059L52.3564 39.715L53.9163 33.9213L46.8254 32.0122L45.2655 37.8059ZM52.3747 39.7199C54.0696 40.1648 55.9909 40.7888 58.1449 41.6021L60.2642 35.9888C57.9637 35.1203 55.8395 34.4261 53.8981 33.9165L52.3747 39.7199ZM58.1543 41.6056C60.1492 42.3512 62.0667 43.3733 63.9092 44.6835L67.3863 39.7938C65.1378 38.1949 62.7599 36.9215 60.2548 35.9853L58.1543 41.6056ZM63.9401 44.7052C65.6406 45.8825 67.054 47.4005 68.1843 49.2972L73.3384 46.2255C71.787 43.6222 69.7913 41.4585 67.3554 39.7721L63.9401 44.7052ZM68.1843 49.2972C69.1872 50.9799 69.7727 53.1797 69.7727 56.0455H75.7727C75.7727 52.3657 75.0174 49.0428 73.3384 46.2255L68.1843 49.2972ZM69.7727 56.0455C69.7727 59.2622 68.9394 62.0996 67.2906 64.6391L72.323 67.9064C74.6288 64.3549 75.7727 60.3742 75.7727 56.0455H69.7727ZM67.2821 64.6524C65.6741 67.1577 63.2738 69.2323 59.9267 70.8252L62.5051 76.243C66.7035 74.2449 70.0304 71.4786 72.3316 67.8931L67.2821 64.6524ZM59.9204 70.8282C56.6744 72.3824 52.5861 73.2273 47.5455 73.2273V79.2273C53.2321 79.2273 58.2574 78.2767 62.5114 76.2399L59.9204 70.8282ZM47.5455 73.2273C42.8612 73.2273 38.9623 72.4708 35.7673 71.0619L33.3463 76.5518C37.4696 78.3701 42.2297 79.2273 47.5455 79.2273V73.2273ZM35.7736 71.0647C32.5635 69.6402 30.1409 67.7063 28.3954 65.2969L23.5364 68.8168C25.9728 72.18 29.2774 74.7462 33.34 76.549L35.7736 71.0647ZM28.4045 65.3095C26.6842 62.9085 25.6834 60.0967 25.4469 56.7863L19.4622 57.2137C19.7712 61.5397 21.1113 65.4324 23.5273 68.8042L28.4045 65.3095ZM22.4545 60H31.1818V54H22.4545V60ZM28.1929 57.2577C28.4677 60.4454 29.5667 63.2675 31.6052 65.5458L36.0766 61.5451C35.0243 60.3689 34.3505 58.8273 34.1707 56.7423L28.1929 57.2577ZM31.6331 65.5766C33.5635 67.6749 35.9702 69.2045 38.7757 70.1931L40.7698 64.5342C38.8025 63.8409 37.2546 62.8251 36.0487 61.5143L31.6331 65.5766ZM38.808 70.2043C41.5544 71.137 44.474 71.5909 47.5455 71.5909V65.5909C45.0715 65.5909 42.8092 65.2266 40.7375 64.523L38.808 70.2043ZM47.5455 71.5909C51.0978 71.5909 54.3885 71.0149 57.3697 69.8013L55.1075 64.2441C52.9524 65.1215 50.4476 65.5909 47.5455 65.5909V71.5909ZM57.3907 69.7927C60.3547 68.5599 62.8274 66.7992 64.689 64.4581L59.9928 60.7237C58.8544 62.1553 57.259 63.3492 55.0865 64.2528L57.3907 69.7927ZM64.6999 64.4444C66.6363 61.9798 67.5909 59.0917 67.5909 55.9091H61.5909C61.5909 57.8174 61.0455 59.3838 59.982 60.7374L64.6999 64.4444ZM67.5909 55.9091C67.5909 53.0027 66.7628 50.3597 64.888 48.2547L60.4074 52.2453C61.1236 53.0494 61.5909 54.1791 61.5909 55.9091H67.5909ZM64.888 48.2547C63.2526 46.4184 61.1638 45 58.7194 43.9486L56.3488 49.4604C58.1317 50.2273 59.452 51.1725 60.4074 52.2453L64.888 48.2547ZM58.7194 43.9486C56.4691 42.9808 54.056 42.1419 51.4848 41.4276L49.8789 47.2087C52.2167 47.8581 54.3718 48.6101 56.3488 49.4604L58.7194 43.9486ZM51.506 41.4336L42.9151 38.9791L41.2667 44.7482L49.8577 47.2028L51.506 41.4336ZM42.9198 38.9804C37.775 37.5013 33.9105 35.4478 31.1607 32.9336L27.1121 37.3618C30.7259 40.6659 35.4978 43.0896 41.262 44.7468L42.9198 38.9804ZM31.1607 32.9336C28.6611 30.6483 27.3636 27.6754 27.3636 23.7273H21.3636C21.3636 29.1882 23.248 33.8289 27.1121 37.3618L31.1607 32.9336ZM27.3636 23.7273C27.3636 20.3935 28.2527 17.6148 29.9611 15.2634L25.1071 11.7366C22.5882 15.2034 21.3636 19.2428 21.3636 23.7273H27.3636ZM29.9587 15.2667C31.7619 12.7921 34.1978 10.8368 37.3547 9.41823L34.8953 3.9454C30.8704 5.7541 27.579 8.34428 25.1095 11.7333L29.9587 15.2667ZM37.3625 9.41468C40.5421 7.97487 44.1469 7.22727 48.2273 7.22727V1.22727C43.3985 1.22727 38.9352 2.11604 34.8875 3.94895L37.3625 9.41468ZM48.2273 7.22727C52.3657 7.22727 55.9257 7.96802 58.9712 9.37212L61.4833 3.92333C57.5288 2.10016 53.0888 1.22727 48.2273 1.22727V7.22727ZM58.9859 9.37882C62.0753 10.7831 64.4233 12.6589 66.1313 14.9741L70.9596 11.4122C68.5767 8.182 65.3792 5.69413 61.4687 3.91662L58.9859 9.37882ZM66.1407 14.9869C67.8348 17.2581 68.7255 19.811 68.8197 22.7331L74.8166 22.5396C74.6836 18.4163 73.3924 14.6737 70.9502 11.3995L66.1407 14.9869ZM71.8182 19.6364H63.6364V25.6364H71.8182V19.6364ZM141.594 59.1818L138.906 57.8493L138.906 57.8493L141.594 59.1818ZM130.651 71.5909L132.245 74.1321L132.245 74.1321L130.651 71.5909ZM98.8778 71.5909L97.2834 74.1321L97.2834 74.1321L98.8778 71.5909ZM87.9347 59.1818L90.6225 57.8493L90.6225 57.8493L87.9347 59.1818ZM130.651 8.59091L132.245 6.04972L132.245 6.04972L130.651 8.59091ZM141.594 21L138.906 22.3325L138.906 22.3325L141.594 21ZM134.366 24.7841L131.663 26.0842L131.669 26.0962L134.366 24.7841ZM126.219 15.3409L124.626 17.883L124.633 17.8877L126.219 15.3409ZM103.276 15.3409L101.69 12.7941L101.683 12.7988L103.276 15.3409ZM95.1278 24.7841L92.43 23.472L92.4242 23.484L95.1278 24.7841ZM95.1278 55.3977L92.4242 56.6979L92.43 56.7098L95.1278 55.3977ZM103.276 64.8409L101.683 67.383L101.69 67.3877L103.276 64.8409ZM126.219 64.8409L124.633 62.2941L124.626 62.2988L126.219 64.8409ZM134.366 55.3977L131.669 54.0856L131.663 54.0976L134.366 55.3977ZM142.582 40.0909C142.582 47.0966 141.318 52.9842 138.906 57.8493L144.282 60.5143C147.188 54.6522 148.582 47.8125 148.582 40.0909H142.582ZM138.906 57.8493C136.469 62.765 133.18 66.4622 129.056 69.0497L132.245 74.1321C137.394 70.9014 141.4 66.3259 144.282 60.5143L138.906 57.8493ZM129.056 69.0497C124.939 71.6328 120.206 72.9545 114.764 72.9545V78.9545C121.231 78.9545 127.089 77.3672 132.245 74.1321L129.056 69.0497ZM114.764 72.9545C109.322 72.9545 104.589 71.6328 100.472 69.0497L97.2834 74.1321C102.439 77.3672 108.297 78.9545 114.764 78.9545V72.9545ZM100.472 69.0497C96.3484 66.4622 93.0595 62.765 90.6225 57.8493L85.2468 60.5143C88.128 66.3259 92.1345 70.9014 97.2834 74.1321L100.472 69.0497ZM90.6225 57.8493C88.2105 52.9842 86.946 47.0966 86.946 40.0909H80.946C80.946 47.8125 82.3406 54.6522 85.2468 60.5143L90.6225 57.8493ZM86.946 40.0909C86.946 33.0852 88.2105 27.1976 90.6225 22.3325L85.2468 19.6675C82.3406 25.5296 80.946 32.3693 80.946 40.0909H86.946ZM90.6225 22.3325C93.0595 17.4168 96.3484 13.7196 100.472 11.1321L97.2834 6.04972C92.1345 9.28038 88.128 13.8559 85.2468 19.6675L90.6225 22.3325ZM100.472 11.1321C104.589 8.54903 109.322 7.22727 114.764 7.22727V1.22727C108.297 1.22727 102.439 2.8146 97.2834 6.04972L100.472 11.1321ZM114.764 7.22727C120.206 7.22727 124.939 8.54903 129.056 11.1321L132.245 6.04972C127.089 2.8146 121.231 1.22727 114.764 1.22727V7.22727ZM129.056 11.1321C133.18 13.7196 136.469 17.4168 138.906 22.3325L144.282 19.6675C141.4 13.8559 137.394 9.28038 132.245 6.04972L129.056 11.1321ZM138.906 22.3325C141.318 27.1976 142.582 33.0852 142.582 40.0909H148.582C148.582 32.3693 147.188 25.5296 144.282 19.6675L138.906 22.3325ZM140.401 40.0909C140.401 33.725 139.337 28.1455 137.064 23.472L131.669 26.0962C133.441 29.7409 134.401 34.3659 134.401 40.0909H140.401ZM137.07 23.484C134.859 18.8861 131.785 15.2723 127.804 12.7941L124.633 17.8877C127.516 19.6822 129.874 22.3639 131.663 26.0842L137.07 23.484ZM127.812 12.7988C123.9 10.3477 119.525 9.13636 114.764 9.13636V15.1364C118.458 15.1364 121.719 16.0614 124.626 17.883L127.812 12.7988ZM114.764 9.13636C110.003 9.13636 105.62 10.3476 101.69 12.7941L104.861 17.8877C107.795 16.0614 111.07 15.1364 114.764 15.1364V9.13636ZM101.683 12.7988C97.7294 15.2761 94.6609 18.8847 92.43 23.472L97.8257 26.0962C99.6402 22.3653 102.004 19.6784 104.869 17.883L101.683 12.7988ZM92.4242 23.484C90.1784 28.1542 89.1278 33.7292 89.1278 40.0909H95.1278C95.1278 34.3617 96.0773 29.7322 97.8315 26.0842L92.4242 23.484ZM89.1278 40.0909C89.1278 46.4526 90.1784 52.0276 92.4242 56.6978L97.8315 54.0976C96.0773 50.4496 95.1278 45.8201 95.1278 40.0909H89.1278ZM92.43 56.7098C94.6609 61.2971 97.7294 64.9057 101.683 67.383L104.869 62.2988C102.004 60.5034 99.6402 57.8166 97.8257 54.0857L92.43 56.7098ZM101.69 67.3877C105.62 69.8342 110.003 71.0455 114.764 71.0455V65.0455C111.07 65.0455 107.795 64.1204 104.861 62.2941L101.69 67.3877ZM114.764 71.0455C119.525 71.0455 123.9 69.8341 127.812 67.383L124.626 62.2988C121.719 64.1204 118.458 65.0455 114.764 65.0455V71.0455ZM127.804 67.3877C131.785 64.9095 134.859 61.2957 137.07 56.6978L131.663 54.0976C129.874 57.8179 127.516 60.4996 124.633 62.2941L127.804 67.3877ZM137.064 56.7098C139.337 52.0363 140.401 46.4568 140.401 40.0909H134.401C134.401 45.8159 133.441 50.441 131.669 54.0857L137.064 56.7098ZM159.798 75H156.798V78H159.798V75ZM159.798 5.18182V2.18182H156.798V5.18182H159.798ZM196.821 7.97727L195.411 10.6253L195.418 10.6289L195.424 10.6324L196.821 7.97727ZM204.594 15.5795L201.933 16.966L201.933 16.966L204.594 15.5795ZM204.594 37.5341L201.941 36.1322L201.941 36.1322L204.594 37.5341ZM196.855 45.0341L198.231 47.6997L198.238 47.6962L198.245 47.6926L196.855 45.0341ZM164.435 47.7273H161.435V50.7273H164.435V47.7273ZM164.435 40.0909V37.0909H161.435V40.0909H164.435ZM192.253 38.4545L190.965 35.7449L190.955 35.75L192.253 38.4545ZM197.23 33.8182L194.565 32.4407L194.559 32.4523L197.23 33.8182ZM192.219 14.4205L190.867 17.0984L190.877 17.1038L190.888 17.109L192.219 14.4205ZM168.253 12.6818V9.68182H165.253V12.6818H168.253ZM168.253 75V78H171.253V75H168.253ZM192.662 43.6364L195.293 42.195L194.439 40.6364H192.662V43.6364ZM209.844 75V78H214.908L212.475 73.5586L209.844 75ZM200.026 75L197.385 76.4237L198.235 78H200.026V75ZM183.116 43.6364V40.6364H178.091L180.476 45.06L183.116 43.6364ZM162.798 75V5.18182H156.798V75H162.798ZM159.798 8.18182H183.389V2.18182H159.798V8.18182ZM183.389 8.18182C188.527 8.18182 192.477 9.06314 195.411 10.6253L198.231 5.32926C194.165 3.16413 189.16 2.18182 183.389 2.18182V8.18182ZM195.424 10.6324C198.433 12.2148 200.558 14.3277 201.933 16.966L207.254 14.1931C205.265 10.3769 202.209 7.42155 198.218 5.32214L195.424 10.6324ZM201.933 16.966C203.364 19.7121 204.116 22.8964 204.116 26.5909H210.116C210.116 22.0582 209.187 17.9015 207.254 14.1931L201.933 16.966ZM204.116 26.5909C204.116 30.2864 203.364 33.4406 201.941 36.1322L207.246 38.936C209.187 35.2639 210.116 31.1227 210.116 26.5909H204.116ZM201.941 36.1322C200.569 38.7284 198.455 40.8122 195.465 42.3756L198.245 47.6926C202.21 45.6196 205.255 42.7035 207.246 38.936L201.941 36.1322ZM195.479 42.3685C192.558 43.8765 188.629 44.7273 183.526 44.7273V50.7273C189.24 50.7273 194.198 49.7825 198.231 47.6997L195.479 42.3685ZM183.526 44.7273H164.435V50.7273H183.526V44.7273ZM167.435 47.7273V40.0909H161.435V47.7273H167.435ZM164.435 43.0909H183.253V37.0909H164.435V43.0909ZM183.253 43.0909C187.232 43.0909 190.727 42.5149 193.551 41.1591L190.955 35.75C189.234 36.576 186.728 37.0909 183.253 37.0909V43.0909ZM193.541 41.1641C196.35 39.8289 198.539 37.8482 199.901 35.184L194.559 32.4523C193.876 33.7881 192.746 34.8984 190.965 35.745L193.541 41.1641ZM199.895 35.1956C201.205 32.6609 201.798 29.7582 201.798 26.5909H195.798C195.798 29.0146 195.346 30.93 194.565 32.4407L199.895 35.1956ZM201.798 26.5909C201.798 23.4201 201.204 20.5011 199.913 17.9197L194.547 20.603C195.347 22.2034 195.798 24.1708 195.798 26.5909H201.798ZM199.913 17.9197C198.548 15.1881 196.371 13.1287 193.55 11.7319L190.888 17.109C192.657 17.9849 193.822 19.1528 194.547 20.603L199.913 17.9197ZM193.571 11.7425C190.707 10.2961 187.156 9.68182 183.116 9.68182V15.6818C186.622 15.6818 189.14 16.2266 190.867 17.0984L193.571 11.7425ZM183.116 9.68182H168.253V15.6818H183.116V9.68182ZM165.253 12.6818V75H171.253V12.6818H165.253ZM168.253 72H159.798V78H168.253V72ZM190.031 45.0777L207.213 76.4414L212.475 73.5586L195.293 42.195L190.031 45.0777ZM209.844 72H200.026V78H209.844V72ZM202.666 73.5763L185.757 42.2127L180.476 45.06L197.385 76.4237L202.666 73.5763ZM183.116 46.6364H192.662V40.6364H183.116V46.6364ZM217.386 12.6818H214.386V15.6818H217.386V12.6818ZM217.386 5.18182V2.18182H214.386V5.18182H217.386ZM269.75 5.18182H272.75V2.18182H269.75V5.18182ZM269.75 12.6818V15.6818H272.75V12.6818H269.75ZM247.795 12.6818V9.68182H244.795V12.6818H247.795ZM247.795 75V78H250.795V75H247.795ZM239.341 75H236.341V78H239.341V75ZM239.341 12.6818H242.341V9.68182H239.341V12.6818ZM220.386 12.6818V5.18182H214.386V12.6818H220.386ZM217.386 8.18182H269.75V2.18182H217.386V8.18182ZM266.75 5.18182V12.6818H272.75V5.18182H266.75ZM269.75 9.68182H247.795V15.6818H269.75V9.68182ZM244.795 12.6818V75H250.795V12.6818H244.795ZM247.795 72H239.341V78H247.795V72ZM242.341 75V12.6818H236.341V75H242.341ZM239.341 9.68182H217.386V15.6818H239.341V9.68182ZM282.798 75H279.798V78H282.798V75ZM282.798 5.18182V2.18182H279.798V5.18182H282.798ZM324.935 5.18182H327.935V2.18182H324.935V5.18182ZM324.935 12.6818V15.6818H327.935V12.6818H324.935ZM291.253 12.6818V9.68182H288.253V12.6818H291.253ZM291.253 36.2727H288.253V39.2727H291.253V36.2727ZM322.753 36.2727H325.753V33.2727H322.753V36.2727ZM322.753 43.7727V46.7727H325.753V43.7727H322.753ZM291.253 43.7727V40.7727H288.253V43.7727H291.253ZM291.253 67.5H288.253V70.5H291.253V67.5ZM325.48 67.5H328.48V64.5H325.48V67.5ZM325.48 75V78H328.48V75H325.48ZM285.798 75V5.18182H279.798V75H285.798ZM282.798 8.18182H324.935V2.18182H282.798V8.18182ZM321.935 5.18182V12.6818H327.935V5.18182H321.935ZM324.935 9.68182H291.253V15.6818H324.935V9.68182ZM288.253 12.6818V36.2727H294.253V12.6818H288.253ZM291.253 39.2727H322.753V33.2727H291.253V39.2727ZM319.753 36.2727V43.7727H325.753V36.2727H319.753ZM322.753 40.7727H291.253V46.7727H322.753V40.7727ZM288.253 43.7727V67.5H294.253V43.7727H288.253ZM291.253 70.5H325.48V64.5H291.253V70.5ZM322.48 67.5V75H328.48V67.5H322.48ZM325.48 72H282.798V78H325.48V72ZM343.037 75V78H345.155L345.864 76.0036L343.037 75ZM334.173 75L331.357 73.9659L329.876 78H334.173V75ZM359.81 5.18182V2.18182H357.715L356.994 4.14776L359.81 5.18182ZM368.537 5.18182L371.353 4.14776L370.631 2.18182H368.537V5.18182ZM394.173 75V78H398.471L396.989 73.9659L394.173 75ZM385.31 75L382.483 76.0036L383.191 78H385.31V75ZM364.446 16.2273L367.273 15.2237L366.564 13.2273H364.446V16.2273ZM363.901 16.2273V13.2273H361.782L361.073 15.2237L363.901 16.2273ZM346.31 47.7273V44.7273H343.31V47.7273H346.31ZM382.037 47.7273H385.037V44.7273H382.037V47.7273ZM382.037 55.2273V58.2273H385.037V55.2273H382.037ZM346.31 55.2273H343.31V58.2273H346.31V55.2273ZM343.037 72H334.173V78H343.037V72ZM336.989 76.0341L362.626 6.21587L356.994 4.14776L331.357 73.9659L336.989 76.0341ZM359.81 8.18182H368.537V2.18182H359.81V8.18182ZM365.721 6.21587L391.357 76.0341L396.989 73.9659L371.353 4.14776L365.721 6.21587ZM394.173 72H385.31V78H394.173V72ZM388.137 73.9964L367.273 15.2237L361.619 17.2309L382.483 76.0036L388.137 73.9964ZM364.446 13.2273H363.901V19.2273H364.446V13.2273ZM361.073 15.2237L340.21 73.9964L345.864 76.0036L366.728 17.2309L361.073 15.2237ZM346.31 50.7273H382.037V44.7273H346.31V50.7273ZM379.037 47.7273V55.2273H385.037V47.7273H379.037ZM382.037 52.2273H346.31V58.2273H382.037V52.2273ZM349.31 55.2273V47.7273H343.31V55.2273H349.31ZM405.048 75H402.048V78H405.048V75ZM405.048 5.18182V2.18182H402.048V5.18182H405.048ZM444.935 9.375L443.429 11.9699L443.438 11.9752L444.935 9.375ZM456.014 21.3409L453.324 22.6684L453.326 22.6731L456.014 21.3409ZM455.98 58.7386L458.668 60.0709L458.67 60.0663L455.98 58.7386ZM444.662 70.8068L446.136 73.4196L446.145 73.4145L444.662 70.8068ZM413.503 67.5H410.503V70.5H413.503V67.5ZM448.923 25.3977L446.188 26.6288L446.19 26.6345L448.923 25.3977ZM440.673 15.9886L439.125 18.5583L439.137 18.5653L440.673 15.9886ZM413.503 12.6818V9.68182H410.503V12.6818H413.503ZM426.594 72H405.048V78H426.594V72ZM408.048 75V5.18182H402.048V75H408.048ZM405.048 8.18182H427.548V2.18182H405.048V8.18182ZM427.548 8.18182C433.906 8.18182 439.158 9.4916 443.429 11.9699L446.44 6.78012C441.075 3.66749 434.736 2.18182 427.548 2.18182V8.18182ZM443.438 11.9752C447.718 14.4379 451.007 17.9722 453.324 22.6684L458.704 20.0134C455.885 14.3005 451.788 9.85758 446.431 6.77481L443.438 11.9752ZM453.326 22.6731C455.644 27.3505 456.866 33.0768 456.866 39.9545H462.866C462.866 32.3778 461.52 25.695 458.702 20.0087L453.326 22.6731ZM456.866 39.9545C456.866 46.8759 455.634 52.6617 453.29 57.411L458.67 60.0663C461.508 54.3156 462.866 47.5786 462.866 39.9545H456.866ZM453.292 57.4064C450.96 62.1114 447.601 65.6839 443.179 68.1991L446.145 73.4145C451.632 70.2934 455.818 65.8205 458.668 60.0709L453.292 57.4064ZM443.188 68.194C438.781 70.6803 433.294 72 426.594 72V78C434.076 78 440.634 76.5242 446.136 73.4196L443.188 68.194ZM413.503 70.5H426.048V64.5H413.503V70.5ZM426.048 70.5C432.193 70.5 437.541 69.3156 441.919 66.7465L438.882 61.5717C435.669 63.4571 431.449 64.5 426.048 64.5V70.5ZM441.919 66.7465C446.264 64.1969 449.51 60.548 451.622 55.8857L446.157 53.4097C444.541 56.9748 442.128 59.6667 438.882 61.5717L441.919 66.7465ZM451.622 55.8857C453.701 51.2964 454.685 45.9566 454.685 39.9545H448.685C448.685 45.3161 447.805 49.7718 446.157 53.4097L451.622 55.8857ZM454.685 39.9545C454.685 33.9999 453.713 28.7055 451.656 24.1609L446.19 26.6345C447.815 30.2263 448.685 34.6365 448.685 39.9545H454.685ZM451.659 24.1666C449.58 19.5464 446.426 15.926 442.21 13.4119L439.137 18.5653C442.239 20.4149 444.585 23.0673 446.188 26.6288L451.659 24.1666ZM442.221 13.419C437.982 10.8649 432.854 9.68182 427.003 9.68182V15.6818C432.061 15.6818 436.046 16.7033 439.125 18.5583L442.221 13.419ZM427.003 9.68182H413.503V15.6818H427.003V9.68182ZM410.503 12.6818V67.5H416.503V12.6818H410.503ZM528.969 59.1818L526.281 57.8493L526.281 57.8493L528.969 59.1818ZM518.026 71.5909L519.62 74.1321L519.62 74.1321L518.026 71.5909ZM486.253 71.5909L484.658 74.1321L484.658 74.1321L486.253 71.5909ZM475.31 59.1818L477.997 57.8493L477.997 57.8493L475.31 59.1818ZM518.026 8.59091L519.62 6.04972L519.62 6.04972L518.026 8.59091ZM528.969 21L526.281 22.3325L526.281 22.3325L528.969 21ZM521.741 24.7841L519.038 26.0842L519.044 26.0962L521.741 24.7841ZM513.594 15.3409L512.001 17.883L512.008 17.8877L513.594 15.3409ZM490.651 15.3409L489.065 12.7941L489.058 12.7988L490.651 15.3409ZM482.503 24.7841L479.805 23.472L479.799 23.484L482.503 24.7841ZM482.503 55.3977L479.799 56.6979L479.805 56.7098L482.503 55.3977ZM490.651 64.8409L489.058 67.383L489.065 67.3877L490.651 64.8409ZM513.594 64.8409L512.008 62.2941L512.001 62.2988L513.594 64.8409ZM521.741 55.3977L519.044 54.0856L519.038 54.0976L521.741 55.3977ZM529.957 40.0909C529.957 47.0966 528.693 52.9842 526.281 57.8493L531.657 60.5143C534.563 54.6522 535.957 47.8125 535.957 40.0909H529.957ZM526.281 57.8493C523.844 62.765 520.555 66.4622 516.431 69.0497L519.62 74.1321C524.769 70.9014 528.775 66.3259 531.657 60.5143L526.281 57.8493ZM516.431 69.0497C512.314 71.6328 507.581 72.9545 502.139 72.9545V78.9545C508.606 78.9545 514.464 77.3672 519.62 74.1321L516.431 69.0497ZM502.139 72.9545C496.697 72.9545 491.964 71.6328 487.847 69.0497L484.658 74.1321C489.814 77.3672 495.672 78.9545 502.139 78.9545V72.9545ZM487.847 69.0497C483.723 66.4622 480.434 62.765 477.997 57.8493L472.622 60.5143C475.503 66.3259 479.51 70.9014 484.658 74.1321L487.847 69.0497ZM477.997 57.8493C475.586 52.9842 474.321 47.0966 474.321 40.0909H468.321C468.321 47.8125 469.716 54.6522 472.622 60.5143L477.997 57.8493ZM474.321 40.0909C474.321 33.0852 475.586 27.1976 477.997 22.3325L472.622 19.6675C469.716 25.5296 468.321 32.3693 468.321 40.0909H474.321ZM477.997 22.3325C480.434 17.4168 483.723 13.7196 487.847 11.1321L484.658 6.04972C479.51 9.28038 475.503 13.8559 472.622 19.6675L477.997 22.3325ZM487.847 11.1321C491.964 8.54903 496.697 7.22727 502.139 7.22727V1.22727C495.672 1.22727 489.814 2.8146 484.658 6.04972L487.847 11.1321ZM502.139 7.22727C507.581 7.22727 512.314 8.54903 516.431 11.1321L519.62 6.04972C514.464 2.8146 508.606 1.22727 502.139 1.22727V7.22727ZM516.431 11.1321C520.555 13.7196 523.844 17.4168 526.281 22.3325L531.657 19.6675C528.775 13.8559 524.769 9.28038 519.62 6.04972L516.431 11.1321ZM526.281 22.3325C528.693 27.1976 529.957 33.0852 529.957 40.0909H535.957C535.957 32.3693 534.563 25.5296 531.657 19.6675L526.281 22.3325ZM527.776 40.0909C527.776 33.725 526.712 28.1455 524.439 23.472L519.044 26.0962C520.816 29.7409 521.776 34.3659 521.776 40.0909H527.776ZM524.445 23.484C522.234 18.8861 519.16 15.2723 515.179 12.7941L512.008 17.8877C514.891 19.6822 517.249 22.3639 519.038 26.0842L524.445 23.484ZM515.187 12.7988C511.275 10.3477 506.9 9.13636 502.139 9.13636V15.1364C505.833 15.1364 509.094 16.0614 512.001 17.883L515.187 12.7988ZM502.139 9.13636C497.378 9.13636 492.995 10.3476 489.065 12.7941L492.236 17.8877C495.17 16.0614 498.445 15.1364 502.139 15.1364V9.13636ZM489.058 12.7988C485.104 15.2761 482.036 18.8847 479.805 23.472L485.201 26.0962C487.015 22.3653 489.379 19.6784 492.244 17.883L489.058 12.7988ZM479.799 23.484C477.553 28.1542 476.503 33.7292 476.503 40.0909H482.503C482.503 34.3617 483.452 29.7322 485.206 26.0842L479.799 23.484ZM476.503 40.0909C476.503 46.4526 477.553 52.0276 479.799 56.6978L485.206 54.0976C483.452 50.4496 482.503 45.8201 482.503 40.0909H476.503ZM479.805 56.7098C482.036 61.2971 485.104 64.9057 489.058 67.383L492.244 62.2988C489.379 60.5034 487.015 57.8166 485.201 54.0857L479.805 56.7098ZM489.065 67.3877C492.995 69.8342 497.378 71.0455 502.139 71.0455V65.0455C498.445 65.0455 495.17 64.1204 492.236 62.2941L489.065 67.3877ZM502.139 71.0455C506.9 71.0455 511.275 69.8341 515.187 67.383L512.001 62.2988C509.094 64.1204 505.833 65.0455 502.139 65.0455V71.0455ZM515.179 67.3877C519.16 64.9095 522.234 61.2957 524.445 56.6978L519.038 54.0976C517.249 57.8179 514.891 60.4996 512.008 62.2941L515.179 67.3877ZM524.439 56.7098C526.712 52.0363 527.776 46.4568 527.776 40.0909H521.776C521.776 45.8159 520.816 50.441 519.044 54.0857L524.439 56.7098ZM547.173 75H544.173V78H547.173V75ZM547.173 5.18182V2.18182H544.173V5.18182H547.173ZM584.196 7.97727L582.786 10.6253L582.793 10.6289L582.799 10.6324L584.196 7.97727ZM591.969 15.5795L589.308 16.966L589.308 16.966L591.969 15.5795ZM591.969 37.5341L589.316 36.1322L589.316 36.1322L591.969 37.5341ZM584.23 45.0341L585.606 47.6997L585.613 47.6962L585.62 47.6926L584.23 45.0341ZM551.81 47.7273H548.81V50.7273H551.81V47.7273ZM551.81 40.0909V37.0909H548.81V40.0909H551.81ZM579.628 38.4545L578.34 35.7449L578.33 35.75L579.628 38.4545ZM584.605 33.8182L581.94 32.4407L581.934 32.4523L584.605 33.8182ZM579.594 14.4205L578.242 17.0984L578.252 17.1038L578.263 17.109L579.594 14.4205ZM555.628 12.6818V9.68182H552.628V12.6818H555.628ZM555.628 75V78H558.628V75H555.628ZM580.037 43.6364L582.668 42.195L581.814 40.6364H580.037V43.6364ZM597.219 75V78H602.283L599.85 73.5586L597.219 75ZM587.401 75L584.76 76.4237L585.61 78H587.401V75ZM570.491 43.6364V40.6364H565.466L567.851 45.06L570.491 43.6364ZM550.173 75V5.18182H544.173V75H550.173ZM547.173 8.18182H570.764V2.18182H547.173V8.18182ZM570.764 8.18182C575.902 8.18182 579.852 9.06314 582.786 10.6253L585.606 5.32926C581.54 3.16413 576.535 2.18182 570.764 2.18182V8.18182ZM582.799 10.6324C585.808 12.2148 587.933 14.3277 589.308 16.966L594.629 14.1931C592.64 10.3769 589.584 7.42155 585.593 5.32214L582.799 10.6324ZM589.308 16.966C590.739 19.7121 591.491 22.8964 591.491 26.5909H597.491C597.491 22.0582 596.562 17.9015 594.629 14.1931L589.308 16.966ZM591.491 26.5909C591.491 30.2864 590.739 33.4406 589.316 36.1322L594.621 38.936C596.562 35.2639 597.491 31.1227 597.491 26.5909H591.491ZM589.316 36.1322C587.944 38.7284 585.83 40.8122 582.84 42.3756L585.62 47.6926C589.585 45.6196 592.63 42.7035 594.621 38.936L589.316 36.1322ZM582.854 42.3685C579.933 43.8765 576.004 44.7273 570.901 44.7273V50.7273C576.615 50.7273 581.573 49.7825 585.606 47.6997L582.854 42.3685ZM570.901 44.7273H551.81V50.7273H570.901V44.7273ZM554.81 47.7273V40.0909H548.81V47.7273H554.81ZM551.81 43.0909H570.628V37.0909H551.81V43.0909ZM570.628 43.0909C574.607 43.0909 578.102 42.5149 580.926 41.1591L578.33 35.75C576.609 36.576 574.103 37.0909 570.628 37.0909V43.0909ZM580.916 41.1641C583.725 39.8289 585.914 37.8482 587.276 35.184L581.934 32.4523C581.251 33.7881 580.121 34.8984 578.34 35.745L580.916 41.1641ZM587.27 35.1956C588.58 32.6609 589.173 29.7582 589.173 26.5909H583.173C583.173 29.0146 582.721 30.93 581.94 32.4407L587.27 35.1956ZM589.173 26.5909C589.173 23.4201 588.579 20.5011 587.288 17.9197L581.922 20.603C582.722 22.2034 583.173 24.1708 583.173 26.5909H589.173ZM587.288 17.9197C585.923 15.1881 583.746 13.1287 580.925 11.7319L578.263 17.109C580.032 17.9849 581.197 19.1528 581.922 20.603L587.288 17.9197ZM580.946 11.7425C578.082 10.2961 574.531 9.68182 570.491 9.68182V15.6818C573.997 15.6818 576.515 16.2266 578.242 17.0984L580.946 11.7425ZM570.491 9.68182H555.628V15.6818H570.491V9.68182ZM552.628 12.6818V75H558.628V12.6818H552.628ZM555.628 72H547.173V78H555.628V72ZM577.406 45.0777L594.588 76.4414L599.85 73.5586L582.668 42.195L577.406 45.0777ZM597.219 72H587.401V78H597.219V72ZM590.041 73.5763L573.132 42.2127L567.851 45.06L584.76 76.4237L590.041 73.5763ZM570.491 46.6364H580.037V40.6364H570.491V46.6364Z" fill="#D9D9D9" mask="url(#path-1-outside-1_1_10)"/>
</g>
<defs>
<filter id="filter0_d_1_10" x="0.354544" y="0.127264" width="596.864" height="88.2" filterUnits="userSpaceOnUse" color-interpolation-filters="sRGB">
<feFlood flood-opacity="0" result="BackgroundImageFix"/>
<feColorMatrix in="SourceAlpha" type="matrix" values="0 0 0 0 0 0 0 0 0 0 0 0 0 0 0 0 0 0 127 0" result="hardAlpha"/>
<feOffset dx="-14" dy="4"/>
<feGaussianBlur stdDeviation="4.05"/>
<feComposite in2="hardAlpha" operator="out"/>
<feColorMatrix type="matrix" values="0 0 0 0 0 0 0 0 0 0 0 0 0 0 0 0 0 0 0.25 0"/>
<feBlend mode="normal" in2="BackgroundImageFix" result="effect1_dropShadow_1_10"/>
<feBlend mode="normal" in="SourceGraphic" in2="effect1_dropShadow_1_10" result="shape"/>
</filter>
</defs>
</svg>
